<svg id="Ebene_1" data-name="Ebene 1" xmlns="http://www.w3.org/2000/svg" xmlns:xlink="http://www.w3.org/1999/xlink" viewBox="0 0 49.4 46.96"><defs><style>.cls-1{fill:#3a8070;}.cls-2{fill:url(#Unbenannter_Verlauf_3);}.cls-3{fill:#44b181;}.cls-4{fill:#37495e;}</style><linearGradient id="Unbenannter_Verlauf_3" x1="-47.31" y1="1291.06" x2="-47.31" y2="1247.97" gradientTransform="matrix(1, 0, 0, -1, 72.25, 1300.82)" gradientUnits="userSpaceOnUse"><stop offset="0" stop-color="#44b180"/><stop offset="0.32" stop-color="#3a8070"/><stop offset="0.93" stop-color="#37495e"/></linearGradient></defs><title>vue-heart</title><path class="cls-1" d="M25,11.42A17.61,17.61,0,0,1,28.1,6.13c3.56-3.86,7.85-5.65,13-4s7.61,5.48,8.37,10.62-1,9.81-3.72,14.08c-4.24,6.65-9.71,12.23-15.58,17.44-1.48,1.32-3,2.56-4.53,3.87a.87.87,0,0,1-1.36,0C16.64,41.73,9.31,35,3.92,26.42,1.28,22.22-.26,17.71.49,12.67c.77-5.21,3.38-9,8.57-10.59s9.47.33,13,4.24A17.54,17.54,0,0,1,25,11.42Zm0,10.71H44c1.44,0,2.8-.18,3.1-2,.58-3.73.93-7.33-.91-10.95-2.54-5-8-7-13-4.56-3.56,1.77-5.66,4.8-7.1,8.4-.22.55-.31,1.36-1.17,1.35s-.83-.75-1.09-1.25a21.26,21.26,0,0,0-4.2-6.22c-3-2.78-6.37-4-10.31-2.77-3.67,1.17-5.62,4-6.63,7.61a13.86,13.86,0,0,0-.24,5.91C3.17,22,2.51,22,7.11,22.1c6,.12,11.93,0,17.89,0Z" transform="translate(-0.3 -1.52)"/><path class="cls-2" d="M46.21,9.25c-2.54-5-8-7-13-4.56-3.57,1.77-5.66,4.8-7.1,8.39-.22.56-.31,1.36-1.17,1.35s-.84-.74-1.09-1.24A21.66,21.66,0,0,0,19.68,7c-3-2.79-6.38-4-10.31-2.77-3.67,1.17-5.63,4-6.63,7.6a13.92,13.92,0,0,0-.25,5.92A31,31,0,0,0,3,20.93H3a1.72,1.72,0,0,0,.25.53C9.83,35.19,22.46,44.78,25,46.72,27.53,44.79,40.12,35,46.7,21.29A2.49,2.49,0,0,0,47,20.7v0h0a2.77,2.77,0,0,0,.11-.48C47.71,16.47,48.05,12.87,46.21,9.25Z" transform="translate(-0.3 -1.52)"/><polygon class="cls-3" points="41.84 11.8 37.28 19.76 32.59 11.8 29.55 11.8 37.28 24.92 44.77 11.8 41.84 11.8"/><polygon class="cls-4" points="41.84 11.8 39.08 11.8 37.28 14.82 35.41 11.8 32.59 11.8 37.28 19.76 41.84 11.8"/></svg>